<svg width="80" height="24" viewBox="0 0 80 24" fill="none" xmlns="http://www.w3.org/2000/svg">
<path fill-rule="evenodd" clip-rule="evenodd" d="M65.0675 5.50545C64.0867 5.08515 63.036 4.875 61.9152 4.875C60.7944 4.875 59.7437 5.08515 58.763 5.50545C57.7823 5.92575 56.9277 6.50015 56.1991 7.22868C55.4706 7.9572 54.8962 8.8118 54.4759 9.7925C54.0556 10.7732 53.8455 11.8239 53.8455 12.9447C53.8455 14.0656 54.0556 15.1163 54.4759 16.097C54.8962 17.0777 55.4706 17.9323 56.1991 18.6608C56.9277 19.3893 57.7823 19.9637 58.763 20.384C59.7437 20.8043 60.7944 21.0145 61.9152 21.0145C63.036 21.0145 64.0867 20.8043 65.0675 20.384C66.0482 19.9637 66.9028 19.3893 67.6313 18.6608C68.3598 17.9323 68.9342 17.0777 69.3545 16.097C69.7748 15.1163 69.985 14.0656 69.985 12.9447C69.985 11.8239 69.7748 10.7732 69.3545 9.7925C68.9342 8.8118 68.3598 7.9572 67.6313 7.22868C66.9028 6.50015 66.0482 5.92575 65.0675 5.50545ZM63.4568 16.5872C62.9711 16.7927 62.4574 16.8954 61.9157 16.8954C61.374 16.8954 60.8603 16.7927 60.3746 16.5872C59.8889 16.3817 59.4686 16.1015 59.1137 15.7466C58.7588 15.3917 58.4786 14.9714 58.2731 14.4857C58.0676 14 57.9649 13.4863 57.9649 12.9446C57.9649 12.4029 58.0676 11.8892 58.2731 11.4035C58.4786 10.9178 58.7588 10.4976 59.1137 10.1426C59.4686 9.78771 59.8889 9.50751 60.3746 9.30203C60.8603 9.09655 61.374 8.99381 61.9157 8.99381C62.4574 8.99381 62.9711 9.09655 63.4568 9.30203C63.9425 9.50751 64.3628 9.78771 64.7177 10.1426C65.0726 10.4976 65.3528 10.9178 65.5583 11.4035C65.7638 11.8892 65.8665 12.4029 65.8665 12.9446C65.8665 13.4863 65.7638 14 65.5583 14.4857C65.3528 14.9714 65.0726 15.3917 64.7177 15.7466C64.3628 16.1015 63.9425 16.3817 63.4568 16.5872Z" fill="white"/>
<path fill-rule="evenodd" clip-rule="evenodd" d="M26.9871 4.87512C28.1079 4.87512 29.1586 5.08527 30.1394 5.50557C31.1201 5.92587 31.9747 6.50028 32.7032 7.2288C33.4317 7.95732 34.0061 8.81192 34.4264 9.79262C34.8467 10.7733 35.0569 11.8241 35.0569 12.9449C35.0569 13.5199 35.0015 14.0764 34.8909 14.6145H30.5734C30.593 14.5721 30.612 14.5292 30.6304 14.4857C30.8359 14 30.9386 13.4863 30.9386 12.9446C30.9386 12.4029 30.8359 11.8892 30.6304 11.4035C30.4249 10.9178 30.1447 10.4976 29.7898 10.1426C29.4349 9.78771 29.0146 9.50751 28.5289 9.30203C28.0432 9.09655 27.5295 8.99381 26.9878 8.99381C26.4461 8.99381 25.9324 9.09655 25.4467 9.30203C24.961 9.50751 24.5407 9.78771 24.1858 10.1426C23.8309 10.4976 23.5507 10.9178 23.3452 11.4035C23.1397 11.8892 23.037 12.4029 23.037 12.9446C23.037 13.4863 23.1397 14 23.3452 14.4857C23.5507 14.9714 23.8309 15.3917 24.1858 15.7466C24.5407 16.1015 24.961 16.3817 25.4467 16.5872C25.9324 16.7927 26.4461 16.8954 26.9878 16.8954C27.5295 16.8954 28.0432 16.7927 28.5289 16.5872C29.0146 16.3817 29.4349 16.1015 29.7898 15.7466C29.813 15.7235 29.8358 15.7 29.8583 15.6763L33.3492 17.9305C33.1493 18.1867 32.934 18.4301 32.7032 18.6609C31.9747 19.3895 31.1201 19.9639 30.1394 20.3842C29.1586 20.8045 28.1079 21.0146 26.9871 21.0146C25.8663 21.0146 24.8156 20.8045 23.8349 20.3842C22.8542 19.9639 21.9996 19.3895 21.271 18.6609C20.5425 17.9324 19.9681 17.0778 19.5478 16.0971C19.1275 15.1164 18.9174 14.0657 18.9174 12.9449C18.9174 11.8241 19.1275 10.7733 19.5478 9.79262C19.9681 8.81192 20.5425 7.95732 21.271 7.2288C21.9996 6.50028 22.8542 5.92587 23.8349 5.50557C24.8156 5.08527 25.8663 4.87512 26.9871 4.87512Z" fill="white"/>
<rect x="21.8455" y="11.5538" width="9.73935" height="3.06094" fill="white"/>
<path d="M78.1448 17.1218L80.0001 17.1218V20.7363H77.1C73.7782 20.7363 71.6553 18.7066 71.6553 15.3752V2.92725H75.0522H75.8325V6.84511H79.9983V10.1085H75.9013L75.8192 14.8369C75.8192 16.2877 76.658 17.1218 78.1448 17.1218Z" fill="white"/>
<path fill-rule="evenodd" clip-rule="evenodd" d="M44.3709 4.8639C45.0375 4.8639 45.6856 4.94296 46.3153 5.10107C46.9449 5.25919 47.5282 5.48707 48.0652 5.7847V0.701111H51.6567H52.1762V5.8853V20.7914H48.601L48.0652 20.0659C46.9541 20.6984 45.7227 21.0146 44.3709 21.0146C43.2968 21.0146 42.2876 20.81 41.3431 20.4007C40.3987 19.9915 39.5747 19.4288 38.871 18.7126C38.1673 17.9964 37.6118 17.164 37.2044 16.2153C36.797 15.2666 36.5933 14.1866 36.5933 13.1077C36.5933 12.0287 36.797 10.584 37.2044 9.63534C37.6118 8.68663 38.1673 7.85884 38.871 7.15196C39.5747 6.44507 40.3987 5.88701 41.3431 5.47777C42.2876 5.06852 43.2968 4.8639 44.3709 4.8639ZM45.9263 16.5878C45.4406 16.7933 44.9269 16.896 44.3852 16.896C43.8434 16.896 43.3298 16.7933 42.8441 16.5878C42.3584 16.3823 41.9381 16.1022 41.5832 15.7472C41.2283 15.3923 40.9481 14.972 40.7426 14.4863C40.5371 14.0007 40.4344 13.487 40.4344 12.9452C40.4344 12.4035 40.5371 11.8898 40.7426 11.4041C40.9481 10.9185 41.2283 10.4982 41.5832 10.1432C41.9381 9.78832 42.3584 9.50812 42.8441 9.30264C43.3298 9.09716 43.8434 8.99442 44.3852 8.99442C44.9269 8.99442 45.4406 9.09716 45.9263 9.30264C46.4119 9.50812 46.8322 9.78832 47.1872 10.1432C47.5421 10.4982 47.8223 10.9185 48.0278 11.4041C48.2332 11.8898 48.336 12.4035 48.336 12.9452C48.336 13.487 48.2332 14.0007 48.0278 14.4863C47.8223 14.972 47.5421 15.3923 47.1872 15.7472C46.8322 16.1022 46.4119 16.3823 45.9263 16.5878Z" fill="white"/>
<path fill-rule="evenodd" clip-rule="evenodd" d="M8.57961 17.5888C8.5798 17.589 8.5799 17.5891 8.5799 17.5891C8.60431 17.5891 8.62871 17.589 8.65308 17.5888H8.57961ZM4.58201 14.6106V12.1484L4.58315 12.1484V4.69022H8.68569C10.9479 4.69022 12.7882 6.55817 12.7882 8.8399C12.7882 10.3156 12.0185 11.6132 10.8627 12.3459L12.6995 16.5149C15.368 15.0222 17.1813 12.1269 17.1813 8.80711C17.1813 3.96445 13.323 0 8.5799 0H0V14.6102H4.55324C4.56276 14.6102 4.57235 14.6103 4.58201 14.6106Z" fill="#08C754"/>
<path fill-rule="evenodd" clip-rule="evenodd" d="M7.71195 14.6209L11.1501 12.1444L17.1852 21.0106L13.747 23.4871L7.71195 14.6209Z" fill="#08C754"/>
</svg>
